<svg id="Calque_1" data-name="Calque 1" xmlns="http://www.w3.org/2000/svg" viewBox="0 0 850 500"><defs><style>.cls-1{fill:#ffba00;}.cls-1,.cls-2{fill-rule:evenodd;}.cls-2{fill:#655b50;}.cls-3{fill:#fff;}.cls-4{fill:#d5a150;}.cls-5{fill:#ad712c;}.cls-6{fill:#c98a2e;}.cls-7{fill:#674230;}.cls-8{fill:#7a5436;}.cls-9{fill:none;}.cls-10{isolation:isolate;}.cls-11{fill:#d10024;}</style></defs><path class="cls-1" d="M0,425l25-35V25H825L850,0H0Z"/><path class="cls-2" d="M825,110l25-35V500H0l25-25H825Z"/><path class="cls-3" d="M507.5,135.8a94.52,94.52,0,0,1-1.2,15.2,43.48,43.48,0,0,1-5.7-11.4c.2,0,.4.1.6.1a3,3,0,0,0,0-6,3,3,0,0,0-2,.8,42.55,42.55,0,0,1-1-9.5,44.55,44.55,0,0,1,4.5-19.7,96.42,96.42,0,0,1,4.8,30.5Z"/><path class="cls-3" d="M504.2,136.8a3,3,0,0,1-3,3,1.27,1.27,0,0,1-.6-.1,48.37,48.37,0,0,1-1.4-5.1,2.79,2.79,0,0,1,2-.8,3,3,0,0,1,3,3Z"/><path class="cls-3" d="M498.1,177.8A22.56,22.56,0,0,1,497,180a40.19,40.19,0,0,0-5-.6,20.48,20.48,0,0,0,.5-2.4v-.7c.6-1.4,1.2-2.8,1.9-4.1A13.11,13.11,0,0,1,498.1,177.8Z"/><path class="cls-3" d="M501.8,168.9c-1.1,3-2.3,6-3.7,8.9a13.42,13.42,0,0,0-3.7-5.6,42.46,42.46,0,0,1,4.3-6.7c.6.5,1.2,1,1.7,1.5a6.22,6.22,0,0,1,1.4,1.9Z"/><path class="cls-3" d="M504.8,159a101.15,101.15,0,0,1-2.9,9.8,8.47,8.47,0,0,0-1.4-1.9c-.6-.5-1.1-1.1-1.7-1.5a45.11,45.11,0,0,1,6-6.4Z"/><path class="cls-3" d="M523.4,151.6a89.29,89.29,0,0,1-1,13.7,47.62,47.62,0,0,1-12.7-10,43.49,43.49,0,0,1,13.7-6.1v2.4Z"/><path class="cls-3" d="M460.6,196.2a3,3,0,0,1-6,0,4.25,4.25,0,0,1,.2-1.1c.5-.5.9-1.1,1.4-1.6a3.08,3.08,0,0,1,1.3-.3,3,3,0,0,1,3.1,3Z"/><path class="cls-3" d="M498.9,182.4a13.94,13.94,0,0,1-9.5,13.2c0-.8-.1-1.6-.1-2.4v-.4a100.32,100.32,0,0,0,7.6-12.6.76.76,0,0,0,.5-.2l1.3.3a7.49,7.49,0,0,1,.2,2.1Z"/><path class="cls-3" d="M491.4,179.7l-.9,3.3a13.5,13.5,0,0,1-8,6,7.76,7.76,0,0,0-1.6-2.4,6,6,0,0,1-1.4-6.2,46.21,46.21,0,0,1,9.9-1.1h1.4A.92.92,0,0,0,491.4,179.7Z"/><path class="cls-3" d="M516.3,188.2A97.67,97.67,0,0,1,497,218.6a45.42,45.42,0,0,1-7.7-23,13.85,13.85,0,0,0,9.5-13.2,7.49,7.49,0,0,0-.2-2.1,45.19,45.19,0,0,1,17.7,7.9Z"/><circle class="cls-4" cx="425" cy="149.1" r="105.8"/><path class="cls-5" d="M490.8,66.3A105.75,105.75,0,0,1,342.2,214.9,105.77,105.77,0,1,0,490.8,66.3Z"/><path class="cls-6" d="M376.9,103.4a8.16,8.16,0,0,1-6-2.5,23.45,23.45,0,0,1,16.6-40,23.14,23.14,0,0,1,16.6,6.9,8.49,8.49,0,0,1-12,12,6.36,6.36,0,0,0-9,9,8.51,8.51,0,0,1,0,12A9.25,9.25,0,0,1,376.9,103.4Z"/><circle class="cls-7" cx="387.4" cy="84.3" r="14.9"/><path class="cls-8" d="M372.6,82.9v.2a8.27,8.27,0,0,0,8.6,8.9,3.4,3.4,0,0,0,1-.1,15,15,0,0,0,13.3-13.4v-.2a8.27,8.27,0,0,0-8.6-8.9,3.4,3.4,0,0,0-1,.1A14.91,14.91,0,0,0,372.6,82.9Z"/><path class="cls-6" d="M342.8,171.5a8.16,8.16,0,0,1-6-2.5,23.45,23.45,0,0,1,16.6-40,23.14,23.14,0,0,1,16.6,6.9,8.49,8.49,0,0,1-12,12,6.36,6.36,0,0,0-9,9,8.51,8.51,0,0,1,0,12A8.63,8.63,0,0,1,342.8,171.5Z"/><circle class="cls-7" cx="353.4" cy="152.4" r="14.9"/><path class="cls-8" d="M338.5,151v.2a8.27,8.27,0,0,0,8.6,8.9,3.4,3.4,0,0,0,1-.1,15,15,0,0,0,13.3-13.4v-.2a8.27,8.27,0,0,0-8.6-8.9,3.4,3.4,0,0,0-1,.1A15,15,0,0,0,338.5,151Z"/><path class="cls-6" d="M372.6,214.1a8.16,8.16,0,0,1-6-2.5,23.45,23.45,0,0,1,16.6-40,23.14,23.14,0,0,1,16.6,6.9,8.49,8.49,0,0,1-12,12,6.36,6.36,0,0,0-9,9,8.51,8.51,0,0,1,0,12A9.06,9.06,0,0,1,372.6,214.1Z"/><circle class="cls-7" cx="383.2" cy="195" r="14.9"/><path class="cls-8" d="M368.3,193.6v.2a8.27,8.27,0,0,0,8.6,8.9,3.4,3.4,0,0,0,1-.1,15,15,0,0,0,13.3-13.4V189a8.27,8.27,0,0,0-8.6-8.9,3.4,3.4,0,0,0-1,.1A15,15,0,0,0,368.3,193.6Z"/><path class="cls-6" d="M419.5,243.9a8.16,8.16,0,0,1-6-2.5,23.45,23.45,0,0,1,16.6-40,23.14,23.14,0,0,1,16.6,6.9,8.49,8.49,0,0,1-12,12,6.36,6.36,0,0,0-9,9,8.51,8.51,0,0,1,0,12A9.44,9.44,0,0,1,419.5,243.9Z"/><circle class="cls-7" cx="430" cy="224.8" r="14.9"/><path class="cls-8" d="M415.2,223.4v.2a8.27,8.27,0,0,0,8.6,8.9,3.4,3.4,0,0,0,1-.1A15,15,0,0,0,438.1,219v-.2a8.27,8.27,0,0,0-8.6-8.9,3.4,3.4,0,0,0-1,.1A14.82,14.82,0,0,0,415.2,223.4Z"/><path class="cls-6" d="M428,124.7a8.16,8.16,0,0,1-6-2.5,23.45,23.45,0,0,1,16.6-40,23.14,23.14,0,0,1,16.6,6.9,8.49,8.49,0,0,1-12,12,6.36,6.36,0,0,0-9,9,8.51,8.51,0,0,1,0,12A9,9,0,0,1,428,124.7Z"/><circle class="cls-7" cx="438.5" cy="105.7" r="14.9"/><path class="cls-8" d="M423.7,104.2v.2a8.27,8.27,0,0,0,8.6,8.9,3.4,3.4,0,0,0,1-.1,15,15,0,0,0,13.3-13.4v-.2a8.27,8.27,0,0,0-8.6-8.9,3.4,3.4,0,0,0-1,.1A14.91,14.91,0,0,0,423.7,104.2Z"/><path class="cls-6" d="M479,201.3a8.16,8.16,0,0,1-6-2.5,23.45,23.45,0,0,1,16.6-40,23.14,23.14,0,0,1,16.6,6.9,8.49,8.49,0,0,1-12,12,6.36,6.36,0,0,0-9,9,8.51,8.51,0,0,1,0,12,8.63,8.63,0,0,1-6.2,2.6Z"/><circle class="cls-7" cx="489.6" cy="182.2" r="14.9"/><path class="cls-8" d="M474.8,180.8v.2a8.27,8.27,0,0,0,8.6,8.9,3.4,3.4,0,0,0,1-.1,15,15,0,0,0,13.3-13.4v-.2a8.27,8.27,0,0,0-8.6-8.9,3.4,3.4,0,0,0-1,.1A14.82,14.82,0,0,0,474.8,180.8Z"/><path class="cls-6" d="M474.8,120.4a8.16,8.16,0,0,1-6-2.5,23.45,23.45,0,0,1,16.6-40A23.14,23.14,0,0,1,502,84.8a8.49,8.49,0,0,1-12,12,6.36,6.36,0,0,0-9,9,8.51,8.51,0,0,1,0,12A8.8,8.8,0,0,1,474.8,120.4Z"/><circle class="cls-7" cx="485.3" cy="101.4" r="14.9"/><path class="cls-8" d="M470.5,99.9v.2a8.27,8.27,0,0,0,8.6,8.9,3.4,3.4,0,0,0,1-.1,15,15,0,0,0,13.3-13.4v-.2a8.27,8.27,0,0,0-8.6-8.9,3.4,3.4,0,0,0-1,.1A15,15,0,0,0,470.5,99.9Z"/><path class="cls-6" d="M410.9,171.5a8.16,8.16,0,0,1-6-2.5,23.45,23.45,0,0,1,16.6-40,23.14,23.14,0,0,1,16.6,6.9,8.49,8.49,0,0,1-12,12,6.36,6.36,0,0,0-9,9,8.51,8.51,0,0,1,0,12A8.63,8.63,0,0,1,410.9,171.5Z"/><circle class="cls-7" cx="421.5" cy="152.4" r="14.9"/><path class="cls-8" d="M406.6,151v.2a8.27,8.27,0,0,0,8.6,8.9,3.4,3.4,0,0,0,1-.1,15,15,0,0,0,13.3-13.4v-.2a8.27,8.27,0,0,0-8.6-8.9,3.4,3.4,0,0,0-1,.1A15,15,0,0,0,406.6,151Z"/><circle class="cls-5" cx="372.9" cy="165.1" r="3.2"/><circle class="cls-5" cx="394.1" cy="165.1" r="3.2"/><circle class="cls-5" cx="383.5" cy="145.9" r="3.2"/><circle class="cls-5" cx="345.2" cy="184.2" r="3.2"/><circle class="cls-5" cx="387.8" cy="231.1" r="3.2"/><circle class="cls-5" cx="400.5" cy="214" r="3.2"/><circle class="cls-5" cx="421.8" cy="188.5" r="3.2"/><circle class="cls-5" cx="455.9" cy="175.7" r="3.2"/><circle class="cls-5" cx="447.3" cy="184.2" r="3.2"/><circle class="cls-5" cx="460.1" cy="197" r="3.2"/><circle class="cls-5" cx="460.1" cy="222.6" r="3.2"/><circle class="cls-5" cx="506.9" cy="133.2" r="3.2"/><circle class="cls-5" cx="494.2" cy="218.3" r="3.2"/><circle class="cls-5" cx="430.3" cy="56.5" r="3.2"/><circle class="cls-5" cx="353.7" cy="94.9" r="3.2"/><circle class="cls-5" cx="336.7" cy="120.4" r="3.2"/><circle class="cls-5" cx="385.6" cy="126.8" r="3.2"/><circle class="cls-5" cx="398.4" cy="120.4" r="3.2"/><circle class="cls-5" cx="385.6" cy="114" r="3.2"/><circle class="cls-5" cx="445.2" cy="145.9" r="3.2"/><circle class="cls-5" cx="417.6" cy="82.1" r="3.2"/><circle class="cls-5" cx="458" cy="120.4" r="3.2"/><circle class="cls-5" cx="464.4" cy="139.6" r="3.2"/><circle class="cls-5" cx="477.1" cy="139.6" r="3.2"/><circle class="cls-5" cx="477.1" cy="152.3" r="3.2"/><circle class="cls-5" cx="453.7" cy="75.7" r="3.2"/><circle class="cls-5" cx="466.5" cy="69.3" r="3.2"/><path class="cls-9" d="M132.3,289.2H717.7V442.9H132.3Z"/><g class="cls-10"><g class="cls-10"><path class="cls-3" d="M167.37,284.38l6.26,15.68L180,284.38h3.73L173.55,308.7l-9.91-24.32Z"/><path class="cls-3" d="M197.17,300.64H186.94a4.36,4.36,0,0,0,1.14,2.8,3.51,3.51,0,0,0,2.6,1,3.34,3.34,0,0,0,2-.58,8.32,8.32,0,0,0,1.81-2.17l2.78,1.55a11.65,11.65,0,0,1-1.36,1.89,7.65,7.65,0,0,1-1.54,1.29,6.57,6.57,0,0,1-1.77.74,9.05,9.05,0,0,1-2.07.23,6.71,6.71,0,0,1-5.13-2.05,7.69,7.69,0,0,1-1.93-5.48,7.9,7.9,0,0,1,1.87-5.48,7.16,7.16,0,0,1,10-.06,7.86,7.86,0,0,1,1.82,5.53ZM193.78,298a3.15,3.15,0,0,0-3.32-2.64,3.27,3.27,0,0,0-2.83,1.54,4.06,4.06,0,0,0-.47,1.1Z"/><path class="cls-3" d="M200.77,292.73h3.31v1.32a5.4,5.4,0,0,1,3.9-1.71,4.93,4.93,0,0,1,3.88,1.56,6.43,6.43,0,0,1,1.2,4.35V307h-3.31v-8a5.18,5.18,0,0,0-.59-2.91,2.35,2.35,0,0,0-2.08-.83,2.56,2.56,0,0,0-2.33,1.09,7.58,7.58,0,0,0-.67,3.74V307h-3.31Z"/><path class="cls-3" d="M230.21,300.64H220a4.36,4.36,0,0,0,1.14,2.8,3.5,3.5,0,0,0,2.59,1,3.39,3.39,0,0,0,2-.58,8.13,8.13,0,0,0,1.8-2.17l2.79,1.55a11.1,11.1,0,0,1-1.37,1.89,7.38,7.38,0,0,1-1.54,1.29,6.31,6.31,0,0,1-1.77.74,8.9,8.9,0,0,1-2.06.23,6.71,6.71,0,0,1-5.13-2.05,7.69,7.69,0,0,1-1.93-5.48,7.9,7.9,0,0,1,1.87-5.48,7.16,7.16,0,0,1,10-.06,7.91,7.91,0,0,1,1.82,5.53ZM226.83,298a3.16,3.16,0,0,0-3.33-2.64,3.42,3.42,0,0,0-1.12.18,3.32,3.32,0,0,0-1,.53,3.27,3.27,0,0,0-.74.83,3.77,3.77,0,0,0-.47,1.1Z"/><path class="cls-3" d="M238.55,303.89H247V307H232l9.24-11.19H234v-3.08h13.8Z"/><path class="cls-3" d="M262.67,314.76h-3.29v-22h3.29v1.56a6.11,6.11,0,0,1,4.43-2A6.19,6.19,0,0,1,272,294.5a7.84,7.84,0,0,1,1.93,5.44,7.72,7.72,0,0,1-1.92,5.35,6.26,6.26,0,0,1-9.29.11ZM270.51,300a5,5,0,0,0-1.11-3.34,3.59,3.59,0,0,0-2.84-1.3,3.78,3.78,0,0,0-2.95,1.26,4.78,4.78,0,0,0-1.13,3.31,4.89,4.89,0,0,0,1.13,3.31,3.7,3.7,0,0,0,2.93,1.27,3.57,3.57,0,0,0,2.83-1.28A4.71,4.71,0,0,0,270.51,300Z"/><path class="cls-3" d="M277.37,292.73h3.29V294a6.58,6.58,0,0,1,1.61-1.31,3.77,3.77,0,0,1,1.7-.36,5.31,5.31,0,0,1,2.73.85l-1.51,3a3.16,3.16,0,0,0-1.83-.67q-2.7,0-2.7,4.07V307h-3.29Z"/><path class="cls-3" d="M301.38,300.64H291.15a4.36,4.36,0,0,0,1.14,2.8,3.51,3.51,0,0,0,2.6,1,3.34,3.34,0,0,0,2-.58,8.13,8.13,0,0,0,1.8-2.17l2.79,1.55a11.65,11.65,0,0,1-1.36,1.89,7.65,7.65,0,0,1-1.54,1.29,6.5,6.5,0,0,1-1.78.74,8.9,8.9,0,0,1-2.06.23,6.71,6.71,0,0,1-5.13-2.05,7.69,7.69,0,0,1-1.93-5.48,7.9,7.9,0,0,1,1.87-5.48,7.16,7.16,0,0,1,10-.06,7.91,7.91,0,0,1,1.82,5.53ZM298,298a3.16,3.16,0,0,0-3.32-2.64,3.25,3.25,0,0,0-2.09.71,3.27,3.27,0,0,0-.74.83,3.77,3.77,0,0,0-.47,1.1Z"/><path class="cls-3" d="M305,292.73h3.31v1.32a5.4,5.4,0,0,1,3.9-1.71,4.93,4.93,0,0,1,3.88,1.56,6.43,6.43,0,0,1,1.2,4.35V307H314v-8a5.18,5.18,0,0,0-.59-2.91,2.35,2.35,0,0,0-2.08-.83,2.56,2.56,0,0,0-2.33,1.09,7.46,7.46,0,0,0-.67,3.74V307H305Z"/><path class="cls-3" d="M332,282.26h3.31V307H332v-1.49a6.15,6.15,0,0,1-4.41,1.9,6.27,6.27,0,0,1-4.87-2.14,8,8,0,0,1-1.91-5.45,7.73,7.73,0,0,1,1.91-5.33,6.18,6.18,0,0,1,9.28-.1Zm-7.83,17.56a5,5,0,0,0,1.1,3.34,3.6,3.6,0,0,0,2.84,1.3,3.79,3.79,0,0,0,3-1.25,5.43,5.43,0,0,0,0-6.63,3.71,3.71,0,0,0-2.93-1.27,3.64,3.64,0,0,0-2.84,1.29A4.76,4.76,0,0,0,324.12,299.82Z"/><path class="cls-3" d="M339.42,292.73h3.29V294a6.58,6.58,0,0,1,1.61-1.31,3.77,3.77,0,0,1,1.7-.36,5.31,5.31,0,0,1,2.73.85l-1.51,3a3.16,3.16,0,0,0-1.83-.67q-2.7,0-2.7,4.07V307h-3.29Z"/><path class="cls-3" d="M363.43,300.64H353.2a4.36,4.36,0,0,0,1.14,2.8,3.51,3.51,0,0,0,2.6,1,3.34,3.34,0,0,0,2-.58,8.13,8.13,0,0,0,1.8-2.17l2.79,1.55a11.65,11.65,0,0,1-1.36,1.89,7.65,7.65,0,0,1-1.54,1.29,6.57,6.57,0,0,1-1.77.74,9.05,9.05,0,0,1-2.07.23,6.71,6.71,0,0,1-5.13-2.05,7.69,7.69,0,0,1-1.93-5.48,7.9,7.9,0,0,1,1.87-5.48,7.16,7.16,0,0,1,10-.06,7.86,7.86,0,0,1,1.82,5.53ZM360,298a3.15,3.15,0,0,0-3.32-2.64,3.27,3.27,0,0,0-2.83,1.54,4.06,4.06,0,0,0-.47,1.1Z"/><path class="cls-3" d="M379.58,292.73v8.19c0,2.36.94,3.54,2.8,3.54s2.8-1.18,2.8-3.54v-8.19h3.3V301a9.25,9.25,0,0,1-.43,3,5,5,0,0,1-1.42,2,6.92,6.92,0,0,1-8.48,0,4.94,4.94,0,0,1-1.45-2,8,8,0,0,1-.41-3v-8.26Z"/><path class="cls-3" d="M392.64,292.73H396v1.32a5.4,5.4,0,0,1,3.89-1.71,4.92,4.92,0,0,1,3.88,1.56,6.42,6.42,0,0,1,1.21,4.35V307h-3.32v-8a5.2,5.2,0,0,0-.58-2.91,2.37,2.37,0,0,0-2.08-.83,2.55,2.55,0,0,0-2.33,1.09,7.46,7.46,0,0,0-.67,3.74V307h-3.31Z"/><path class="cls-3" d="M432.14,306.66c0,.68,0,1.27-.06,1.78a13.13,13.13,0,0,1-.19,1.36,6.08,6.08,0,0,1-1.37,2.77,6.7,6.7,0,0,1-5.32,2.22,7.06,7.06,0,0,1-4.7-1.54,6.25,6.25,0,0,1-2.2-4.37h3.31a3.81,3.81,0,0,0,.63,1.62,3.53,3.53,0,0,0,3,1.33q3.61,0,3.62-4.44v-2a6.16,6.16,0,0,1-4.53,2,6.08,6.08,0,0,1-4.78-2.11,7.81,7.81,0,0,1-1.87-5.35,8.24,8.24,0,0,1,1.74-5.3,6.06,6.06,0,0,1,4.95-2.31,5.79,5.79,0,0,1,4.49,2v-1.61h3.29ZM429,299.89a4.77,4.77,0,0,0-1.12-3.32,3.67,3.67,0,0,0-2.88-1.28,3.55,3.55,0,0,0-3,1.4,5.73,5.73,0,0,0,0,6.41,3.54,3.54,0,0,0,3,1.36,3.62,3.62,0,0,0,3-1.37A4.94,4.94,0,0,0,429,299.89Z"/><path class="cls-3" d="M435.63,299.76a7.12,7.12,0,0,1,2.21-5.26,7.82,7.82,0,0,1,10.81,0,7.64,7.64,0,0,1,0,10.74,7.6,7.6,0,0,1-5.47,2.15,7.21,7.21,0,0,1-5.37-2.2A7.36,7.36,0,0,1,435.63,299.76Zm3.37.06a4.83,4.83,0,0,0,1.14,3.39,4.46,4.46,0,0,0,6.18,0,5.35,5.35,0,0,0,0-6.65,4.38,4.38,0,0,0-6.15,0A4.58,4.58,0,0,0,439,299.82Z"/><path class="cls-3" d="M457.63,292.73v8.19q0,3.54,2.8,3.54c1.86,0,2.8-1.18,2.8-3.54v-8.19h3.29V301a9.26,9.26,0,0,1-.42,3,5.06,5.06,0,0,1-1.42,2,6.94,6.94,0,0,1-8.49,0,5.14,5.14,0,0,1-1.45-2,8.22,8.22,0,0,1-.41-3v-8.26Zm-2.36-3.94,5.14-4.7,5.22,4.7-2.26,1.75-3-2.79-2.91,2.79Z"/><path class="cls-3" d="M474.08,295.81V307h-3.3V295.81h-1.4v-3.08h1.4V287.5h3.3v5.23h2.56v3.08Z"/><path class="cls-3" d="M492.14,300.64H481.92a4.31,4.31,0,0,0,1.14,2.8,3.49,3.49,0,0,0,2.59,1,3.39,3.39,0,0,0,2-.58,8.13,8.13,0,0,0,1.8-2.17l2.78,1.55a11.08,11.08,0,0,1-1.36,1.89,7.38,7.38,0,0,1-1.54,1.29,6.31,6.31,0,0,1-1.77.74,8.9,8.9,0,0,1-2.06.23,6.71,6.71,0,0,1-5.13-2.05,7.69,7.69,0,0,1-1.94-5.48,7.91,7.91,0,0,1,1.88-5.48,7.16,7.16,0,0,1,10-.06,7.91,7.91,0,0,1,1.82,5.53ZM488.76,298a3.16,3.16,0,0,0-3.33-2.64,3.52,3.52,0,0,0-1.13.18,3.31,3.31,0,0,0-1.69,1.36,3.52,3.52,0,0,0-.47,1.1Z"/><path class="cls-3" d="M495.75,292.73H499V294a6.4,6.4,0,0,1,1.61-1.31,3.77,3.77,0,0,1,1.7-.36,5.31,5.31,0,0,1,2.73.85l-1.51,3a3.16,3.16,0,0,0-1.83-.67q-2.7,0-2.7,4.07V307h-3.29Z"/><path class="cls-3" d="M526.74,292.73h3.31V307h-3.31v-1.49a6.33,6.33,0,0,1-9.27-.24,7.94,7.94,0,0,1-1.92-5.45,7.72,7.72,0,0,1,1.92-5.35,6.19,6.19,0,0,1,4.8-2.13,6.06,6.06,0,0,1,4.47,2.05Zm-7.82,7.09a5,5,0,0,0,1.1,3.34,3.59,3.59,0,0,0,2.84,1.3,3.81,3.81,0,0,0,3-1.25,5.43,5.43,0,0,0,0-6.63,3.72,3.72,0,0,0-2.93-1.27,3.64,3.64,0,0,0-2.84,1.29A4.71,4.71,0,0,0,518.92,299.82Z"/><path class="cls-3" d="M536.25,292.73l3.69,8,3.68-8h3.7L539.91,308l-7.35-15.25Z"/><path class="cls-3" d="M562,300.64H551.8a4.32,4.32,0,0,0,1.15,2.8,3.49,3.49,0,0,0,2.59,1,3.39,3.39,0,0,0,2-.58,8.52,8.52,0,0,0,1.8-2.17l2.78,1.55a11.08,11.08,0,0,1-1.36,1.89,7.38,7.38,0,0,1-1.54,1.29,6.57,6.57,0,0,1-1.77.74,9,9,0,0,1-2.07.23,6.67,6.67,0,0,1-5.12-2.05,7.69,7.69,0,0,1-1.94-5.48,7.91,7.91,0,0,1,1.88-5.48,7.16,7.16,0,0,1,10-.06,7.91,7.91,0,0,1,1.81,5.53ZM558.65,298a3.16,3.16,0,0,0-3.33-2.64,3.25,3.25,0,0,0-2.09.71,3.7,3.7,0,0,0-.74.83A4.06,4.06,0,0,0,552,298Z"/><path class="cls-3" d="M576.74,293.35v4.38a8,8,0,0,0-2-1.89,3.92,3.92,0,0,0-2.06-.53,4.06,4.06,0,0,0-3.09,1.3,4.58,4.58,0,0,0-1.23,3.27,4.68,4.68,0,0,0,1.18,3.3,4,4,0,0,0,3.07,1.28,4.18,4.18,0,0,0,2.09-.51,8.1,8.1,0,0,0,2.07-1.93v4.35a8.72,8.72,0,0,1-4,1,7.65,7.65,0,0,1-5.53-2.14,7.12,7.12,0,0,1-2.23-5.35,7.25,7.25,0,0,1,2.25-5.39,7.66,7.66,0,0,1,5.54-2.19A8.22,8.22,0,0,1,576.74,293.35Z"/><path class="cls-3" d="M589.19,292.73h3.31v1.32a5.4,5.4,0,0,1,3.89-1.71,5,5,0,0,1,3.89,1.56,6.43,6.43,0,0,1,1.2,4.35V307h-3.31v-8a5.18,5.18,0,0,0-.59-2.91,2.35,2.35,0,0,0-2.08-.83,2.56,2.56,0,0,0-2.33,1.09,7.46,7.46,0,0,0-.67,3.74V307h-3.31Z"/><path class="cls-3" d="M605,299.76a7.09,7.09,0,0,1,2.22-5.26,7.82,7.82,0,0,1,10.81,0,7.65,7.65,0,0,1,0,10.74,7.56,7.56,0,0,1-5.46,2.15,7.25,7.25,0,0,1-5.38-2.2A7.4,7.4,0,0,1,605,299.76Zm3.37.06a4.79,4.79,0,0,0,1.15,3.39,4.46,4.46,0,0,0,6.18,0,5.38,5.38,0,0,0,0-6.65,4.39,4.39,0,0,0-6.16,0A4.58,4.58,0,0,0,608.33,299.82Z"/><path class="cls-3" d="M627,292.73v8.19q0,3.54,2.79,3.54t2.8-3.54v-8.19h3.3V301a9,9,0,0,1-.43,3,4.86,4.86,0,0,1-1.42,2,6.92,6.92,0,0,1-8.48,0,5,5,0,0,1-1.45-2,8.22,8.22,0,0,1-.41-3v-8.26Z"/><path class="cls-3" d="M648.31,295.16l-2.73,1.45q-.65-1.32-1.59-1.32a1.11,1.11,0,0,0-.78.31,1,1,0,0,0-.32.77c0,.54.63,1.08,1.9,1.62a11.31,11.31,0,0,1,3.53,2.08,3.55,3.55,0,0,1,.91,2.56,4.51,4.51,0,0,1-1.52,3.46,5.46,5.46,0,0,1-8.66-2.18l2.81-1.3a6,6,0,0,0,.9,1.3,2,2,0,0,0,1.43.55c1.12,0,1.67-.5,1.67-1.52,0-.58-.43-1.13-1.29-1.64l-1-.48-1-.49a6.16,6.16,0,0,1-2-1.4,3.51,3.51,0,0,1-.74-2.3,4.07,4.07,0,0,1,1.27-3.08,4.48,4.48,0,0,1,3.17-1.21A4.32,4.32,0,0,1,648.31,295.16Z"/><path class="cls-3" d="M674.44,300.64H664.22a4.31,4.31,0,0,0,1.14,2.8,3.49,3.49,0,0,0,2.59,1,3.39,3.39,0,0,0,2-.58,8.13,8.13,0,0,0,1.8-2.17l2.78,1.55a11.08,11.08,0,0,1-1.36,1.89,7.38,7.38,0,0,1-1.54,1.29,6.31,6.31,0,0,1-1.77.74,8.93,8.93,0,0,1-2.07.23,6.7,6.7,0,0,1-5.12-2.05,7.69,7.69,0,0,1-1.94-5.48,7.91,7.91,0,0,1,1.88-5.48,7.16,7.16,0,0,1,10-.06,7.91,7.91,0,0,1,1.82,5.53ZM671.06,298a3.16,3.16,0,0,0-3.33-2.64,3.52,3.52,0,0,0-1.13.18,3.31,3.31,0,0,0-1.69,1.36,3.52,3.52,0,0,0-.47,1.1Z"/><path class="cls-3" d="M678,292.73h3.32v1.32a5.4,5.4,0,0,1,3.89-1.71,4.92,4.92,0,0,1,3.88,1.56,6.43,6.43,0,0,1,1.2,4.35V307H687v-8a5.2,5.2,0,0,0-.58-2.91,2.37,2.37,0,0,0-2.08-.83,2.55,2.55,0,0,0-2.33,1.09,7.46,7.46,0,0,0-.67,3.74V307H678Z"/></g><g class="cls-10"><path class="cls-3" d="M282.62,328.73h3.31V343h-3.31v-1.49a6.34,6.34,0,0,1-9.28-.24,7.93,7.93,0,0,1-1.91-5.45,7.71,7.71,0,0,1,1.91-5.35,6.21,6.21,0,0,1,4.81-2.13,6.06,6.06,0,0,1,4.47,2.05Zm-7.83,7.09a5,5,0,0,0,1.1,3.34,3.6,3.6,0,0,0,2.84,1.3,3.79,3.79,0,0,0,3-1.25,5.43,5.43,0,0,0,0-6.63,3.71,3.71,0,0,0-2.93-1.27,3.64,3.64,0,0,0-2.84,1.29A4.76,4.76,0,0,0,274.79,335.82Z"/><path class="cls-3" d="M301.19,329.35v4.38a7.86,7.86,0,0,0-2-1.89,4,4,0,0,0-2.07-.53,4.06,4.06,0,0,0-3.09,1.3,4.58,4.58,0,0,0-1.23,3.27,4.69,4.69,0,0,0,1.19,3.3,4,4,0,0,0,3.06,1.28,4.24,4.24,0,0,0,2.1-.51,8.26,8.26,0,0,0,2.06-1.93v4.35a8.68,8.68,0,0,1-4,1,7.66,7.66,0,0,1-5.54-2.14,7.15,7.15,0,0,1-2.23-5.35,7.26,7.26,0,0,1,2.26-5.39,7.64,7.64,0,0,1,5.54-2.19A8.21,8.21,0,0,1,301.19,329.35Z"/><path class="cls-3" d="M315.49,329.35v4.38a8,8,0,0,0-2-1.89,4,4,0,0,0-2.07-.53,4.06,4.06,0,0,0-3.09,1.3,4.58,4.58,0,0,0-1.23,3.27,4.69,4.69,0,0,0,1.19,3.3,4,4,0,0,0,3.06,1.28,4.18,4.18,0,0,0,2.09-.51,8.1,8.1,0,0,0,2.07-1.93v4.35a8.72,8.72,0,0,1-4,1,7.65,7.65,0,0,1-5.53-2.14,7.12,7.12,0,0,1-2.23-5.35,7.22,7.22,0,0,1,2.26-5.39,7.63,7.63,0,0,1,5.53-2.19A8.22,8.22,0,0,1,315.49,329.35Z"/><path class="cls-3" d="M331.67,336.64H321.45a4.36,4.36,0,0,0,1.14,2.8,3.51,3.51,0,0,0,2.6,1,3.36,3.36,0,0,0,2-.58,8.13,8.13,0,0,0,1.8-2.17l2.79,1.55a11.1,11.1,0,0,1-1.37,1.89,7.34,7.34,0,0,1-1.53,1.29,6.5,6.5,0,0,1-1.78.74,8.9,8.9,0,0,1-2.06.23,6.71,6.71,0,0,1-5.13-2.05,7.69,7.69,0,0,1-1.93-5.48,7.9,7.9,0,0,1,1.87-5.48,7.16,7.16,0,0,1,10-.06,7.91,7.91,0,0,1,1.82,5.53ZM328.29,334a3.16,3.16,0,0,0-3.32-2.64,3.25,3.25,0,0,0-2.09.71,3.27,3.27,0,0,0-.74.83,3.77,3.77,0,0,0-.47,1.1Z"/><path class="cls-3" d="M338.57,350.76h-3.29v-22h3.29v1.56a6.11,6.11,0,0,1,4.43-2,6.19,6.19,0,0,1,4.85,2.16,7.84,7.84,0,0,1,1.93,5.44,7.72,7.72,0,0,1-1.92,5.35,6.26,6.26,0,0,1-9.29.11ZM346.41,336a5,5,0,0,0-1.11-3.34,3.59,3.59,0,0,0-2.84-1.3,3.76,3.76,0,0,0-2.95,1.26,4.78,4.78,0,0,0-1.13,3.31,4.89,4.89,0,0,0,1.13,3.31,3.7,3.7,0,0,0,2.93,1.27,3.57,3.57,0,0,0,2.83-1.28A4.71,4.71,0,0,0,346.41,336Z"/><path class="cls-3" d="M356.93,331.81V343h-3.3V331.81h-1.4v-3.08h1.4V323.5h3.3v5.23h2.56v3.08Z"/><path class="cls-3" d="M372.51,328.73h3.31V343h-3.31v-1.49a6.33,6.33,0,0,1-9.27-.24,7.94,7.94,0,0,1-1.92-5.45,7.72,7.72,0,0,1,1.92-5.35,6.2,6.2,0,0,1,4.81-2.13,6,6,0,0,1,4.46,2.05Zm-7.82,7.09a5,5,0,0,0,1.1,3.34,3.59,3.59,0,0,0,2.84,1.3,3.81,3.81,0,0,0,3-1.25,5.43,5.43,0,0,0,0-6.63,3.72,3.72,0,0,0-2.93-1.27,3.64,3.64,0,0,0-2.84,1.29A4.76,4.76,0,0,0,364.69,335.82Z"/><path class="cls-3" d="M380,328.73h3.32v1.32a5.4,5.4,0,0,1,3.89-1.71,4.92,4.92,0,0,1,3.88,1.56,6.43,6.43,0,0,1,1.2,4.35V343H389v-8a5.2,5.2,0,0,0-.58-2.91,2.37,2.37,0,0,0-2.08-.83,2.55,2.55,0,0,0-2.33,1.09,7.46,7.46,0,0,0-.67,3.74V343H380Z"/><path class="cls-3" d="M399.83,331.81V343h-3.29V331.81h-1.41v-3.08h1.41V323.5h3.29v5.23h2.57v3.08Z"/><path class="cls-3" d="M413.9,328.73h3.31v1.32a5.4,5.4,0,0,1,3.89-1.71A4.92,4.92,0,0,1,425,329.9a6.37,6.37,0,0,1,1.21,4.35V343h-3.31v-8a5.18,5.18,0,0,0-.59-2.91,2.35,2.35,0,0,0-2.08-.83,2.56,2.56,0,0,0-2.33,1.09,7.46,7.46,0,0,0-.67,3.74V343H413.9Z"/><path class="cls-3" d="M429.67,335.76a7.12,7.12,0,0,1,2.21-5.26,7.82,7.82,0,0,1,10.81,0,7.64,7.64,0,0,1,0,10.74,7.58,7.58,0,0,1-5.46,2.15,7.25,7.25,0,0,1-5.38-2.2A7.36,7.36,0,0,1,429.67,335.76Zm3.37.06a4.83,4.83,0,0,0,1.14,3.39,4.47,4.47,0,0,0,6.19,0,5.38,5.38,0,0,0,0-6.65,4.05,4.05,0,0,0-3.1-1.26,4,4,0,0,0-3.06,1.26A4.58,4.58,0,0,0,433,335.82Z"/><path class="cls-3" d="M456.67,331.16l-2.73,1.45q-.65-1.32-1.59-1.32a1.11,1.11,0,0,0-.78.31,1,1,0,0,0-.32.77c0,.54.63,1.08,1.9,1.62a11.31,11.31,0,0,1,3.53,2.08,3.55,3.55,0,0,1,.91,2.56,4.51,4.51,0,0,1-1.52,3.46,5.46,5.46,0,0,1-8.66-2.18l2.81-1.3a6,6,0,0,0,.9,1.3,2,2,0,0,0,1.43.55c1.12,0,1.67-.5,1.67-1.52,0-.58-.43-1.13-1.29-1.64l-1-.48-1-.49a6,6,0,0,1-2-1.4,3.46,3.46,0,0,1-.75-2.3,4.07,4.07,0,0,1,1.27-3.08,4.48,4.48,0,0,1,3.17-1.21A4.32,4.32,0,0,1,456.67,331.16Z"/><path class="cls-3" d="M480.91,329.35v4.38a7.86,7.86,0,0,0-2-1.89,4,4,0,0,0-2.06-.53,4.07,4.07,0,0,0-3.1,1.3,4.58,4.58,0,0,0-1.23,3.27,4.69,4.69,0,0,0,1.19,3.3,4,4,0,0,0,3.06,1.28,4.24,4.24,0,0,0,2.1-.51,8.26,8.26,0,0,0,2.06-1.93v4.35a8.68,8.68,0,0,1-4,1,7.67,7.67,0,0,1-5.54-2.14,7.15,7.15,0,0,1-2.23-5.35,7.26,7.26,0,0,1,2.26-5.39,7.64,7.64,0,0,1,5.54-2.19A8.21,8.21,0,0,1,480.91,329.35Z"/><path class="cls-3" d="M483.43,335.76a7.12,7.12,0,0,1,2.21-5.26,7.82,7.82,0,0,1,10.81,0,7.64,7.64,0,0,1,0,10.74,7.58,7.58,0,0,1-5.46,2.15,7.23,7.23,0,0,1-5.38-2.2A7.36,7.36,0,0,1,483.43,335.76Zm3.37.06a4.83,4.83,0,0,0,1.14,3.39,4.46,4.46,0,0,0,6.18,0,5.35,5.35,0,0,0,0-6.65,4.38,4.38,0,0,0-6.15,0A4.58,4.58,0,0,0,486.8,335.82Z"/><path class="cls-3" d="M501.46,335.76a7.09,7.09,0,0,1,2.22-5.26,7.82,7.82,0,0,1,10.81,0,7.65,7.65,0,0,1,0,10.74,7.56,7.56,0,0,1-5.46,2.15,7.25,7.25,0,0,1-5.38-2.2A7.4,7.4,0,0,1,501.46,335.76Zm3.37.06a4.79,4.79,0,0,0,1.15,3.39,4.46,4.46,0,0,0,6.18,0,5.38,5.38,0,0,0,0-6.65,4.39,4.39,0,0,0-6.16,0A4.58,4.58,0,0,0,504.83,335.82Z"/><path class="cls-3" d="M523.47,318.26v15.09l4.64-4.62h4.42l-6.19,6L533,343h-4.28L524,337l-.52.53V343h-3.3V318.26Z"/><path class="cls-3" d="M534.61,322.8a2.13,2.13,0,0,1,2.14-2.12,2.07,2.07,0,0,1,1.53.62,2,2,0,0,1,.63,1.51,2.08,2.08,0,0,1-.63,1.53,2,2,0,0,1-1.51.63,2.08,2.08,0,0,1-1.53-.63A2.11,2.11,0,0,1,534.61,322.8Zm3.8,5.93V343h-3.3V328.73Z"/><path class="cls-3" d="M555.58,336.64H545.35a4.36,4.36,0,0,0,1.14,2.8,3.51,3.51,0,0,0,2.6,1,3.36,3.36,0,0,0,2-.58,8.13,8.13,0,0,0,1.8-2.17l2.79,1.55a11.1,11.1,0,0,1-1.37,1.89,7.34,7.34,0,0,1-1.53,1.29,6.5,6.5,0,0,1-1.78.74,8.9,8.9,0,0,1-2.06.23,6.71,6.71,0,0,1-5.13-2.05,7.69,7.69,0,0,1-1.93-5.48,7.9,7.9,0,0,1,1.87-5.48,7.16,7.16,0,0,1,10-.06,7.91,7.91,0,0,1,1.82,5.53ZM552.19,334a3.16,3.16,0,0,0-3.32-2.64,3.25,3.25,0,0,0-2.09.71,3.27,3.27,0,0,0-.74.83,3.77,3.77,0,0,0-.47,1.1Z"/><path class="cls-3" d="M567.47,331.16l-2.72,1.45c-.43-.88-1-1.32-1.6-1.32a1.13,1.13,0,0,0-.78.31,1,1,0,0,0-.32.77c0,.54.63,1.08,1.9,1.62a11.31,11.31,0,0,1,3.53,2.08,3.55,3.55,0,0,1,.91,2.56,4.51,4.51,0,0,1-1.52,3.46,5.46,5.46,0,0,1-8.66-2.18l2.81-1.3a6.42,6.42,0,0,0,.9,1.3,2,2,0,0,0,1.43.55c1.12,0,1.67-.5,1.67-1.52,0-.58-.43-1.13-1.29-1.64l-1-.48-1-.49a6,6,0,0,1-2-1.4,3.46,3.46,0,0,1-.75-2.3,4.07,4.07,0,0,1,1.27-3.08,4.48,4.48,0,0,1,3.17-1.21A4.32,4.32,0,0,1,567.47,331.16Z"/><path class="cls-3" d="M581.47,341.36a1.94,1.94,0,0,1,.6-1.42,2,2,0,1,1-.6,1.42Zm.38-3.4V320.38h3.32V338Z"/></g></g><path class="cls-11" d="M540.6,442.9H317.4a25.8,25.8,0,0,1-25.8-25.8v-7.5a25.8,25.8,0,0,1,25.8-25.8H540.6a25.8,25.8,0,0,1,25.8,25.8v7.5A25.73,25.73,0,0,1,540.6,442.9Z"/><path class="cls-9" d="M329.3,400.1H520.7v37.8H329.3Z"/><g class="cls-10"><path class="cls-3" d="M363.28,421.09h-8.4L353.53,425h-6.27l8.61-22.62h6.42L370.9,425h-6.27Zm-1.56-4.47-2.64-7.53-2.64,7.53Z"/><path class="cls-3" d="M388.93,410a6.3,6.3,0,0,0-5-2.49,6.15,6.15,0,0,0-2.45.48,6,6,0,0,0-1.93,1.3,6,6,0,0,0-1.28,2,6.45,6.45,0,0,0-.46,2.46,6.53,6.53,0,0,0,.46,2.49,6.06,6.06,0,0,0,1.29,2,6,6,0,0,0,4.33,1.8,6.83,6.83,0,0,0,5.08-2.4v7l-.6.21a17.66,17.66,0,0,1-2.52.7,12.39,12.39,0,0,1-2.31.23,11.84,11.84,0,0,1-8.27-3.38,12.45,12.45,0,0,1-2.63-3.81,11.75,11.75,0,0,1-1-4.81,11.59,11.59,0,0,1,1-4.79,11.79,11.79,0,0,1,6.41-6.21,11.78,11.78,0,0,1,4.52-.88,12.38,12.38,0,0,1,2.66.28,17.14,17.14,0,0,1,2.75.89Z"/><path class="cls-3" d="M408.94,410a6.3,6.3,0,0,0-5-2.49,6.15,6.15,0,0,0-2.45.48,6,6,0,0,0-1.93,1.3,6,6,0,0,0-1.28,2,6.45,6.45,0,0,0-.47,2.46,6.53,6.53,0,0,0,.47,2.49,6,6,0,0,0,3.22,3.3,6,6,0,0,0,2.4.48,6.83,6.83,0,0,0,5.08-2.4v7l-.61.21a17,17,0,0,1-2.52.7,12.22,12.22,0,0,1-2.31.23,11.84,11.84,0,0,1-8.26-3.38,12.28,12.28,0,0,1-2.63-3.81,11.76,11.76,0,0,1-1-4.81,11.59,11.59,0,0,1,1-4.79,11.81,11.81,0,0,1,6.4-6.21,11.83,11.83,0,0,1,4.53-.88,12.38,12.38,0,0,1,2.66.28,17.14,17.14,0,0,1,2.75.89Z"/><path class="cls-3" d="M425.52,407.38h-7v3.78h6.6v5h-6.6V420h7v5H412.65V402.4h12.87Z"/><path class="cls-3" d="M435.63,425h-5.88V402.4h9.36a8,8,0,0,1,5.84,2,8.72,8.72,0,0,1,0,11.16,8,8,0,0,1-5.84,2h-3.48Zm0-12.24h1.95q3.24,0,3.24-2.82t-3.24-2.82h-1.95Z"/><path class="cls-3" d="M458.67,407.38V425h-5.88V407.38H448v-5H463.5v5Z"/><path class="cls-3" d="M479,407.38h-7v3.78h6.6v5H472V420h7v5H466.11V402.4H479Z"/><path class="cls-3" d="M502,425H494.7l-5.61-8.7V425h-5.88V402.4h9.15a9,9,0,0,1,3.3.55,6.55,6.55,0,0,1,2.33,1.52,6.39,6.39,0,0,1,1.38,2.22,7.73,7.73,0,0,1,.46,2.7,6.62,6.62,0,0,1-1.24,4.18,6.29,6.29,0,0,1-3.68,2.18Zm-12.93-12.51h1.11a4.29,4.29,0,0,0,2.67-.72,2.77,2.77,0,0,0,0-4.14,4.29,4.29,0,0,0-2.67-.72h-1.11Z"/></g></svg>